<svg width="20" height="22" viewBox="0 0 20 22" fill="none" xmlns="http://www.w3.org/2000/svg">
<path d="M16.375 11.4893L8.68203 19.1823C7.83811 20.0262 6.69351 20.5003 5.50003 20.5003C4.30655 20.5003 3.16195 20.0262 2.31803 19.1823C1.47411 18.3383 1 17.1937 1 16.0003C1 14.8068 1.47411 13.6622 2.31803 12.8183L13.258 1.87825C13.5367 1.59972 13.8675 1.3788 14.2315 1.22811C14.5956 1.07742 14.9857 0.999907 15.3797 1C15.7737 1.00009 16.1639 1.07779 16.5278 1.22865C16.8918 1.37951 17.2225 1.60059 17.501 1.87925C17.7796 2.15792 18.0005 2.48872 18.1512 2.85276C18.3019 3.2168 18.3794 3.60696 18.3793 4.00096C18.3792 4.39496 18.3015 4.78508 18.1506 5.14906C17.9998 5.51303 17.7787 5.84372 17.5 6.12225L6.55203 17.0703C6.26801 17.3425 5.88839 17.4913 5.49497 17.4863C5.10156 17.4813 4.72585 17.322 4.44883 17.0426C4.1718 16.7632 4.01564 16.3862 4.01399 15.9927C4.01234 15.5993 4.16535 15.2209 4.44003 14.9393L12.25 7.12925M6.56103 17.0603L6.55103 17.0703" stroke="#0C7C59" stroke-width="1.5" stroke-linecap="round" stroke-linejoin="round"/>
</svg>
