<svg width="18" height="20" viewBox="0 0 18 20" fill="none" xmlns="http://www.w3.org/2000/svg">
<path fill-rule="evenodd" clip-rule="evenodd" d="M3 1.5C2.60218 1.5 2.22064 1.65804 1.93934 1.93934C1.65804 2.22064 1.5 2.60218 1.5 3V16.5C1.5 16.8978 1.65804 17.2794 1.93934 17.5607C2.22064 17.842 2.60218 18 3 18H9C9.39782 18 9.77936 17.842 10.0607 17.5607C10.342 17.2794 10.5 16.8978 10.5 16.5V12.75C10.5 12.5511 10.579 12.3603 10.7197 12.2197C10.8603 12.079 11.0511 12 11.25 12C11.4489 12 11.6397 12.079 11.7803 12.2197C11.921 12.3603 12 12.5511 12 12.75V16.5C12 17.2956 11.6839 18.0587 11.1213 18.6213C10.5587 19.1839 9.79565 19.5 9 19.5H3C2.20435 19.5 1.44129 19.1839 0.87868 18.6213C0.316071 18.0587 0 17.2956 0 16.5V3C0 2.20435 0.316071 1.44129 0.87868 0.87868C1.44129 0.316071 2.20435 0 3 0H9C9.79565 0 10.5587 0.316071 11.1213 0.87868C11.6839 1.44129 12 2.20435 12 3V6.75C12 6.94891 11.921 7.13968 11.7803 7.28033C11.6397 7.42098 11.4489 7.5 11.25 7.5C11.0511 7.5 10.8603 7.42098 10.7197 7.28033C10.579 7.13968 10.5 6.94891 10.5 6.75V3C10.5 2.60218 10.342 2.22064 10.0607 1.93934C9.77936 1.65804 9.39782 1.5 9 1.5H3ZM13.72 6.22C13.8606 6.07955 14.0512 6.00066 14.25 6.00066C14.4488 6.00066 14.6394 6.07955 14.78 6.22L17.78 9.22C17.9205 9.36063 17.9993 9.55125 17.9993 9.75C17.9993 9.94875 17.9205 10.1394 17.78 10.28L14.78 13.28C14.7113 13.3537 14.6285 13.4128 14.5365 13.4538C14.4445 13.4948 14.3452 13.5168 14.2445 13.5186C14.1438 13.5204 14.0438 13.5018 13.9504 13.4641C13.857 13.4264 13.7722 13.3703 13.701 13.299C13.6297 13.2278 13.5736 13.143 13.5359 13.0496C13.4982 12.9562 13.4796 12.8562 13.4814 12.7555C13.4832 12.6548 13.5052 12.5555 13.5462 12.4635C13.5872 12.3715 13.6463 12.2887 13.72 12.22L15.44 10.5H4.5C4.30109 10.5 4.11032 10.421 3.96967 10.2803C3.82902 10.1397 3.75 9.94891 3.75 9.75C3.75 9.55109 3.82902 9.36032 3.96967 9.21967C4.11032 9.07902 4.30109 9 4.5 9H15.44L13.72 7.28C13.5795 7.13937 13.5007 6.94875 13.5007 6.75C13.5007 6.55125 13.5795 6.36063 13.72 6.22Z" fill="black"/>
</svg>
